<svg width="809" height="250" viewBox="0 0 809 250" fill="none" xmlns="http://www.w3.org/2000/svg">
<path d="M293.897 189H269.288L314.094 61.7273H342.557L387.425 189H362.816L328.823 87.8281H327.828L293.897 189ZM294.705 139.098H361.822V157.617H294.705V139.098ZM403.195 189V93.5455H425.008V109.455H426.002C427.742 103.944 430.725 99.6978 434.951 96.7148C439.218 93.6905 444.086 92.1783 449.555 92.1783C450.798 92.1783 452.186 92.2404 453.718 92.3647C455.293 92.4476 456.598 92.5926 457.634 92.7997V113.494C456.681 113.163 455.169 112.873 453.097 112.624C451.067 112.334 449.099 112.189 447.193 112.189C443.092 112.189 439.404 113.08 436.131 114.861C432.9 116.601 430.352 119.025 428.488 122.132C426.623 125.239 425.691 128.823 425.691 132.883V189H403.195ZM498.339 190.926C492.29 190.926 486.842 189.849 481.994 187.695C477.189 185.499 473.377 182.268 470.56 178C467.784 173.733 466.396 168.471 466.396 162.216C466.396 156.83 467.39 152.376 469.379 148.854C471.368 145.333 474.081 142.516 477.52 140.403C480.959 138.29 484.832 136.695 489.141 135.618C493.491 134.499 497.986 133.691 502.627 133.194C508.22 132.614 512.756 132.096 516.236 131.64C519.716 131.143 522.244 130.397 523.818 129.403C525.434 128.367 526.242 126.772 526.242 124.618V124.245C526.242 119.563 524.854 115.938 522.078 113.37C519.302 110.801 515.304 109.517 510.084 109.517C504.574 109.517 500.203 110.718 496.971 113.121C493.781 115.524 491.627 118.362 490.508 121.635L469.503 118.652C471.16 112.852 473.895 108.004 477.706 104.11C481.518 100.174 486.179 97.2327 491.689 95.2855C497.199 93.2969 503.289 92.3026 509.96 92.3026C514.558 92.3026 519.136 92.8411 523.694 93.9183C528.251 94.9955 532.415 96.777 536.185 99.2628C539.955 101.707 542.979 105.042 545.258 109.268C547.578 113.494 548.738 118.776 548.738 125.115V189H527.112V175.887H526.366C524.999 178.539 523.072 181.025 520.586 183.345C518.142 185.623 515.055 187.467 511.327 188.876C507.64 190.243 503.31 190.926 498.339 190.926ZM504.18 174.396C508.696 174.396 512.611 173.505 515.926 171.724C519.24 169.901 521.788 167.498 523.569 164.515C525.392 161.532 526.304 158.28 526.304 154.758V143.51C525.599 144.09 524.398 144.629 522.699 145.126C521.042 145.623 519.178 146.058 517.106 146.431C515.035 146.804 512.984 147.135 510.954 147.425C508.924 147.715 507.163 147.964 505.672 148.171C502.316 148.627 499.312 149.372 496.661 150.408C494.009 151.444 491.917 152.894 490.384 154.758C488.851 156.581 488.085 158.943 488.085 161.843C488.085 165.986 489.597 169.114 492.621 171.227C495.646 173.339 499.499 174.396 504.18 174.396ZM571.359 189V93.5455H593.172V109.455H594.166C595.906 103.944 598.889 99.6978 603.115 96.7148C607.382 93.6905 612.25 92.1783 617.719 92.1783C618.962 92.1783 620.35 92.2404 621.883 92.3647C623.457 92.4476 624.762 92.5926 625.798 92.7997V113.494C624.845 113.163 623.333 112.873 621.261 112.624C619.231 112.334 617.263 112.189 615.357 112.189C611.256 112.189 607.569 113.08 604.296 114.861C601.064 116.601 598.516 119.025 596.652 122.132C594.787 125.239 593.855 128.823 593.855 132.883V189H571.359ZM640.744 224.795V93.5455H662.867V109.33H664.172C665.332 107.01 666.969 104.545 669.082 101.935C671.195 99.2835 674.053 97.0256 677.658 95.1612C681.262 93.2554 685.861 92.3026 691.454 92.3026C698.828 92.3026 705.478 94.1876 711.402 97.9577C717.368 101.686 722.091 107.217 725.571 114.55C729.093 121.842 730.854 130.791 730.854 141.397C730.854 151.879 729.134 160.786 725.696 168.119C722.257 175.452 717.575 181.045 711.651 184.898C705.726 188.751 699.015 190.678 691.516 190.678C686.047 190.678 681.511 189.766 677.906 187.944C674.302 186.121 671.402 183.925 669.206 181.356C667.052 178.746 665.374 176.281 664.172 173.961H663.24V224.795H640.744ZM662.805 141.273C662.805 147.446 663.675 152.852 665.415 157.493C667.197 162.133 669.744 165.758 673.059 168.368C676.415 170.937 680.475 172.221 685.239 172.221C690.211 172.221 694.375 170.895 697.73 168.244C701.086 165.551 703.613 161.884 705.312 157.244C707.052 152.562 707.922 147.239 707.922 141.273C707.922 135.348 707.073 130.087 705.374 125.488C703.676 120.889 701.148 117.285 697.793 114.675C694.437 112.065 690.252 110.76 685.239 110.76C680.433 110.76 676.353 112.023 672.997 114.55C669.641 117.078 667.093 120.62 665.353 125.177C663.654 129.734 662.805 135.1 662.805 141.273ZM750.119 189V93.5455H772.615V189H750.119ZM761.429 79.9979C757.866 79.9979 754.8 78.8171 752.231 76.4556C749.663 74.0527 748.378 71.1733 748.378 67.8175C748.378 64.4202 749.663 61.5408 752.231 59.1793C754.8 56.7764 757.866 55.5749 761.429 55.5749C765.033 55.5749 768.099 56.7764 770.626 59.1793C773.195 61.5408 774.479 64.4202 774.479 67.8175C774.479 71.1733 773.195 74.0527 770.626 76.4556C768.099 78.8171 765.033 79.9979 761.429 79.9979Z" fill="#1F75FE"/>
<path d="M118.304 249.919C111.022 249.431 105.093 248.66 99.3884 247.457C61.7645 239.522 30.0103 214.955 12.9514 180.583C5.95754 166.49 2.02104 152.607 0.408592 136.346C0.0233922 132.461 -0.133308 121.851 0.131541 117.589C2.06759 86.4395 15.0315 57.8895 37.1725 36.0145C56.6415 16.7794 82.0554 4.37843 108.981 0.973925C115.804 0.111424 125.808 -0.235076 132.289 0.166424C163.067 2.07493 191.123 14.5544 212.885 36.0159C227.64 50.567 238.377 68.172 244.506 87.8615C247.232 96.6195 248.81 104.741 249.765 114.935C250.078 118.275 250.078 131.767 249.765 135.107C247.77 156.393 241.725 174.473 230.803 191.819C213.885 218.689 186.562 238.543 155.947 246.213C147.934 248.22 140.9 249.324 132.737 249.854C130.326 250.011 120.348 250.055 118.304 249.919ZM134.62 208.912C142.927 207.926 149.91 206.191 157.301 203.278C165.877 199.898 173.504 195.389 180.878 189.339C183.591 187.113 188.649 182.183 190.951 179.521C200.908 168.006 207.676 154.021 210.37 139.392C211.372 133.946 211.714 130.028 211.714 123.959C211.714 116.209 211.015 110.449 209.195 103.196C207.775 97.5365 205.906 92.469 203.211 86.9715C198.727 77.825 193.657 70.81 186.267 63.5265C172.214 49.6755 154.729 41.375 134.62 39.009C131.358 38.625 122.02 38.4729 118.534 38.7469C103.615 39.9195 89.9569 44.468 77.6935 52.3475C72.4845 55.694 68.226 59.126 63.6155 63.693C56.308 70.931 51.3025 77.879 46.845 86.9715C42.1315 96.5845 39.4705 106.264 38.525 117.235C38.289 119.972 38.289 127.946 38.525 130.683C39.2725 139.353 41.239 147.73 44.341 155.456C45.418 158.138 48.1495 163.72 49.626 166.255C61.4635 186.586 81.1465 201.273 104.047 206.866C109.08 208.095 112.023 208.562 118.932 209.227C120.871 209.414 132.331 209.184 134.62 208.912ZM121.711 200.284C91.3504 199.215 64.017 180.063 52.8075 152.005C49.9745 144.914 48.3675 138.136 47.6535 130.263C47.417 127.652 47.4205 120.301 47.6595 117.609C48.54 107.703 51.1145 98.6285 55.495 89.992C59.5425 82.012 64.417 75.422 70.814 69.2815C80.846 59.6515 92.9189 53.0315 106.45 49.74C112.594 48.2455 118.183 47.596 124.938 47.593C132.345 47.5895 137.512 48.212 144.38 49.9365C171.76 56.8095 193.381 78.193 200.325 105.265C203.28 116.789 203.375 129.993 200.585 141.566C196.021 160.499 184.343 176.957 167.879 187.658C161.849 191.578 156.751 194.057 150.098 196.304C141.042 199.363 131.91 200.643 121.711 200.284ZM131.152 167.481C139.367 166.418 147.026 163.119 153.403 157.895C157.948 154.172 161.589 149.573 164.298 144.131C167.2 138.304 168.507 132.672 168.507 125.994C168.507 121.102 167.908 117.344 166.42 112.9C165.489 110.119 163.451 105.922 161.867 103.522C154.965 93.0625 143.784 86.1415 131.152 84.507C128.392 84.15 122.926 84.1495 120.151 84.506C105.725 86.3605 93.3329 95.091 87.0059 107.857C84.0799 113.76 82.8024 119.318 82.8044 126.136C82.8064 132.813 84.0814 138.209 87.0989 144.308C93.2719 156.787 105.71 165.563 119.918 167.465C122.532 167.815 128.504 167.824 131.152 167.481ZM123.324 158.723C114.767 158.196 106.14 154.109 100.507 147.912C94.3474 141.135 91.4649 133.018 91.9744 123.884C92.6249 112.226 99.9594 101.634 110.957 96.469C126.631 89.108 145.509 94.5355 154.568 109.007C162.981 122.447 160.231 140.055 148.081 150.543C142.805 155.097 135.276 158.251 128.742 158.646C127.882 158.698 126.776 158.765 126.283 158.795C125.79 158.825 124.458 158.792 123.324 158.723Z" fill="#1F75FE" fill-opacity="0.99"/>
<path d="M793.246 72.2898V62.8551H797.861C798.457 62.8551 799.003 62.9787 799.497 63.2259C800 63.473 800.396 63.831 800.686 64.2997C800.984 64.7599 801.134 65.3224 801.134 65.9872C801.134 66.652 800.98 67.2188 800.673 67.6875C800.366 68.1562 799.957 68.5142 799.446 68.7614C798.935 69 798.368 69.1193 797.746 69.1193H794.588V67.3423H797.234C797.592 67.3423 797.899 67.2273 798.155 66.9972C798.419 66.767 798.551 66.4261 798.551 65.9744C798.551 65.5057 798.419 65.1733 798.155 64.9773C797.899 64.7727 797.597 64.6705 797.247 64.6705H795.7V72.2898H793.246ZM799.267 67.9304L801.415 72.2898H798.73L796.723 67.9304H799.267ZM796.94 77.9148C795.526 77.9148 794.2 77.6506 792.964 77.1222C791.729 76.5937 790.642 75.8608 789.705 74.9233C788.767 73.9858 788.034 72.8991 787.506 71.6634C786.977 70.4276 786.713 69.1023 786.713 67.6875C786.713 66.2727 786.977 64.9474 787.506 63.7116C788.034 62.4759 788.767 61.3892 789.705 60.4517C790.642 59.5142 791.729 58.7812 792.964 58.2528C794.2 57.7244 795.526 57.4602 796.94 57.4602C798.355 57.4602 799.68 57.7244 800.916 58.2528C802.152 58.7812 803.239 59.5142 804.176 60.4517C805.114 61.3892 805.847 62.4759 806.375 63.7116C806.903 64.9474 807.168 66.2727 807.168 67.6875C807.168 69.1023 806.903 70.4276 806.375 71.6634C805.847 72.8991 805.114 73.9858 804.176 74.9233C803.239 75.8608 802.152 76.5937 800.916 77.1222C799.68 77.6506 798.355 77.9148 796.94 77.9148ZM796.94 75.2173C798.338 75.2173 799.604 74.8807 800.737 74.2074C801.879 73.5256 802.787 72.6179 803.46 71.4844C804.134 70.3423 804.47 69.0767 804.47 67.6875C804.47 66.2983 804.129 65.0369 803.447 63.9034C802.774 62.7614 801.866 61.8537 800.724 61.1804C799.591 60.4986 798.33 60.1577 796.94 60.1577C795.56 60.1577 794.298 60.4986 793.156 61.1804C792.014 61.8537 791.107 62.7614 790.433 63.9034C789.76 65.0369 789.423 66.2983 789.423 67.6875C789.423 69.0767 789.76 70.3423 790.433 71.4844C791.107 72.6179 792.014 73.5256 793.156 74.2074C794.298 74.8807 795.56 75.2173 796.94 75.2173Z" fill="#1F75FE"/>
</svg>
