<svg width="855" height="250" viewBox="0 0 855 250" fill="none" xmlns="http://www.w3.org/2000/svg">
<path d="M277.553 189V61.7273H360.33V81.0543H300.609V115.607H356.042V134.934H300.609V169.673H360.827V189H277.553ZM458.302 118.776L437.794 121.013C437.214 118.942 436.199 116.995 434.749 115.172C433.34 113.349 431.434 111.878 429.031 110.76C426.628 109.641 423.687 109.082 420.207 109.082C415.525 109.082 411.589 110.097 408.399 112.127C405.251 114.157 403.697 116.788 403.738 120.019C403.697 122.795 404.712 125.053 406.784 126.793C408.896 128.533 412.377 129.962 417.224 131.081L433.506 134.561C442.538 136.508 449.249 139.595 453.641 143.821C458.074 148.047 460.311 153.577 460.352 160.413C460.311 166.421 458.55 171.724 455.07 176.322C451.631 180.88 446.846 184.443 440.715 187.011C434.583 189.58 427.54 190.864 419.585 190.864C407.902 190.864 398.498 188.42 391.372 183.531C384.246 178.601 379.999 171.744 378.632 162.961L400.569 160.848C401.563 165.157 403.676 168.409 406.908 170.605C410.139 172.801 414.345 173.899 419.523 173.899C424.868 173.899 429.156 172.801 432.387 170.605C435.66 168.409 437.297 165.696 437.297 162.464C437.297 159.73 436.24 157.472 434.127 155.69C432.056 153.909 428.824 152.542 424.433 151.589L408.151 148.171C398.995 146.265 392.221 143.054 387.829 138.538C383.438 133.981 381.263 128.222 381.304 121.262C381.263 115.379 382.858 110.283 386.089 105.974C389.362 101.624 393.899 98.2685 399.699 95.907C405.541 93.504 412.273 92.3026 419.896 92.3026C431.082 92.3026 439.886 94.6848 446.308 99.4492C452.771 104.214 456.769 110.656 458.302 118.776ZM478.903 224.795V93.5455H501.026V109.33H502.331C503.491 107.01 505.128 104.545 507.241 101.935C509.354 99.2835 512.212 97.0256 515.817 95.1612C519.421 93.2554 524.02 92.3026 529.613 92.3026C536.987 92.3026 543.637 94.1876 549.561 97.9577C555.527 101.686 560.25 107.217 563.73 114.55C567.252 121.842 569.013 130.791 569.013 141.397C569.013 151.879 567.293 160.786 563.855 168.119C560.416 175.452 555.734 181.045 549.81 184.898C543.886 188.751 537.174 190.678 529.675 190.678C524.206 190.678 519.67 189.766 516.065 187.944C512.461 186.121 509.561 183.925 507.365 181.356C505.211 178.746 503.533 176.281 502.331 173.961H501.399V224.795H478.903ZM500.964 141.273C500.964 147.446 501.834 152.852 503.574 157.493C505.356 162.133 507.904 165.758 511.218 168.368C514.574 170.937 518.634 172.221 523.398 172.221C528.37 172.221 532.534 170.895 535.89 168.244C539.245 165.551 541.773 161.884 543.471 157.244C545.211 152.562 546.081 147.239 546.081 141.273C546.081 135.348 545.232 130.087 543.533 125.488C541.835 120.889 539.308 117.285 535.952 114.675C532.596 112.065 528.411 110.76 523.398 110.76C518.593 110.76 514.512 112.023 511.156 114.55C507.8 117.078 505.252 120.62 503.512 125.177C501.813 129.734 500.964 135.1 500.964 141.273ZM605.243 189L578.272 93.5455H601.204L617.983 160.662H618.853L636.005 93.5455H658.688L675.84 160.289H676.772L693.303 93.5455H716.296L689.263 189H665.835L647.937 124.494H646.632L628.734 189H605.243ZM759.471 190.926C753.423 190.926 747.975 189.849 743.127 187.695C738.321 185.499 734.51 182.268 731.693 178C728.917 173.733 727.529 168.471 727.529 162.216C727.529 156.83 728.523 152.376 730.512 148.854C732.5 145.333 735.214 142.516 738.653 140.403C742.091 138.29 745.965 136.695 750.274 135.618C754.624 134.499 759.119 133.691 763.759 133.194C769.352 132.614 773.889 132.096 777.369 131.64C780.849 131.143 783.376 130.397 784.951 129.403C786.566 128.367 787.374 126.772 787.374 124.618V124.245C787.374 119.563 785.986 115.938 783.211 113.37C780.435 110.801 776.437 109.517 771.217 109.517C765.707 109.517 761.336 110.718 758.104 113.121C754.914 115.524 752.76 118.362 751.641 121.635L730.636 118.652C732.293 112.852 735.028 108.004 738.839 104.11C742.651 100.174 747.312 97.2327 752.822 95.2855C758.332 93.2969 764.422 92.3026 771.092 92.3026C775.691 92.3026 780.269 92.8411 784.826 93.9183C789.384 94.9955 793.547 96.777 797.318 99.2628C801.088 101.707 804.112 105.042 806.391 109.268C808.711 113.494 809.871 118.776 809.871 125.115V189H788.244V175.887H787.499C786.131 178.539 784.205 181.025 781.719 183.345C779.275 185.623 776.188 187.467 772.46 188.876C768.772 190.243 764.443 190.926 759.471 190.926ZM765.313 174.396C769.829 174.396 773.744 173.505 777.058 171.724C780.373 169.901 782.921 167.498 784.702 164.515C786.525 161.532 787.437 158.28 787.437 154.758V143.51C786.732 144.09 785.531 144.629 783.832 145.126C782.175 145.623 780.311 146.058 778.239 146.431C776.168 146.804 774.117 147.135 772.087 147.425C770.057 147.715 768.296 147.964 766.804 148.171C763.449 148.627 760.445 149.372 757.793 150.408C755.142 151.444 753.05 152.894 751.517 154.758C749.984 156.581 749.217 158.943 749.217 161.843C749.217 165.986 750.73 169.114 753.754 171.227C756.778 173.339 760.631 174.396 765.313 174.396Z" fill="#028A0F"/>
<path d="M118.347 0.171425C81.4228 2.09399 47.3013 20.3004 24.9244 50.0654C4.53953 77.1898 -3.84605 111.564 1.64396 145.383C7.22662 179.665 27.1945 210.333 56.4282 229.536C82.6273 246.746 114.201 253.417 145.38 248.344C179.664 242.762 210.311 222.795 229.537 193.563C246.725 167.388 253.42 135.77 248.347 104.615C242.764 70.3334 222.796 39.6882 193.563 20.4626C171.348 5.86961 145.079 -1.21838 118.347 0.171425ZM56.2892 61.7629C61.895 62.8516 68.5433 65.7239 77.9713 71.1441C90.4338 78.3016 100.858 87.2659 109.846 98.5001C114.201 103.967 117.49 109.202 119.413 113.718C120.108 115.34 120.71 116.637 120.756 116.591C120.803 116.544 120.942 115.641 121.081 114.576C121.196 113.533 121.451 112.352 121.613 111.958C121.868 111.309 121.845 111.124 121.359 110.29C120.664 109.063 120.64 107.163 121.289 105.936L121.775 105.032L121.173 102.971C119.482 97.0408 116.309 90.4393 112.88 85.6213C111.212 83.3049 106.904 78.927 105.027 77.653L103.707 76.7497L102.34 77.2593C100.719 77.8384 100.186 77.8615 99.2595 77.3983C97.7538 76.6107 97.221 74.4797 98.1476 72.974C99.1205 71.3758 101.228 70.7967 103.151 71.6074C105.468 72.5803 110.216 76.8192 112.973 80.3632C117.421 86.1077 121.382 94.516 123.235 102.183L123.629 103.805H124.972H126.316L126.733 102.183C128.655 94.6087 132.292 86.6868 136.369 81.2202C139.172 77.4214 144.106 72.8582 146.654 71.7001C147.928 71.121 149.642 71.1441 150.615 71.7464C152.77 73.0667 152.909 76.0548 150.87 77.2824C149.92 77.8615 149.341 77.8615 147.673 77.2593L146.353 76.7728L144.871 77.7689C141.489 80.0852 137.365 84.7642 134.609 89.4432C132.385 93.2189 129.883 99.1024 128.725 103.272L128.215 105.055L128.702 105.936C129.35 107.163 129.327 109.063 128.609 110.313C128.215 111.032 128.123 111.379 128.308 111.68C128.424 111.912 128.679 113.093 128.864 114.321C129.049 115.525 129.211 116.568 129.258 116.591C129.304 116.637 129.883 115.34 130.578 113.718C134.447 104.615 144.199 92.3387 154.901 83.1659C162.128 76.9581 170.421 71.6074 180.66 66.5114C185.617 64.0561 190.644 62.2725 194.443 61.6471C197.871 61.068 201.879 61.2302 204.172 62.0641C207.809 63.3381 210.473 65.5154 211.376 67.9013C211.839 69.1058 211.886 69.5922 211.793 71.6074C211.585 76.0316 209.152 81.0117 204.033 87.5902C201.022 91.4584 199.168 94.2612 197.825 97.0872C196.25 100.353 195.67 102.16 194.489 107.256C192.451 115.989 190.273 120.714 186.659 124.096C183.972 126.644 181.169 127.779 177.509 127.779C175.239 127.779 173.456 127.501 168.197 126.343C160.53 124.675 159.07 124.536 158.584 125.462C158.051 126.435 159.742 127.663 167.155 131.716C179.386 138.364 183.671 141.491 186.219 145.522C187.007 146.796 187.493 148.51 187.748 151.127C188.188 155.436 187.285 159.235 184.922 162.802C183.648 164.724 182.999 165.535 179.038 169.936C176.398 172.878 175.425 174.777 174.104 179.526C173.595 181.402 172.946 183.371 172.691 183.88C170.074 189 162.661 190.227 155.688 186.66C152.214 184.9 148.484 181.634 146.399 178.507C143.342 173.967 141.257 169.542 138.06 160.833C136.832 157.497 134.91 152.517 133.775 149.784C132.663 147.051 131.18 143.368 130.485 141.607L129.258 138.411L128.98 145.313C128.47 157.451 127.706 162.964 126.154 165.466C125.551 166.462 124.532 166.531 123.883 165.581C122.378 163.474 121.498 157.243 120.988 144.804L120.71 138.318L119.806 140.75C119.32 142.094 117.814 145.846 116.471 149.089C115.127 152.332 113.297 157.08 112.371 159.628C109.128 168.546 106.788 173.642 103.892 178.02C99.8618 184.158 93.3525 188.328 87.3529 188.629C83.6466 188.814 81.1216 188.05 79.0137 186.127C77.6006 184.83 76.9752 183.556 75.9791 179.92C74.4734 174.383 73.57 172.739 69.6088 168.43C63.7714 162.037 62.1498 158.725 62.173 153.143C62.173 148.255 63.1923 145.591 66.1805 142.58C69.1919 139.569 73.0372 137.044 82.3725 131.948C87.654 129.076 90.2948 127.454 90.9898 126.69C92.0553 125.486 91.1982 124.652 89.0903 124.883C88.3953 124.976 86.2642 125.37 84.3415 125.81C76.5814 127.547 75.8864 127.64 72.7592 127.663C69.3309 127.663 67.9642 127.339 65.6709 125.949C60.8526 123.03 57.9107 117.587 55.5016 107.256C53.5789 98.9171 52.0732 95.7437 46.7222 88.6325C43.2244 83.9998 41.765 81.7761 40.352 78.9734C37.5954 73.4605 37.3869 68.7583 39.7729 65.8629C41.2091 64.1256 44.5448 62.2262 47.2087 61.6471C49.4325 61.1607 53.44 61.2302 56.2892 61.7629Z" fill="#028A0F"/>
<path d="M832.559 108.736V95.6321H839.04C839.774 95.6321 840.472 95.7978 841.135 96.1293C841.81 96.4489 842.354 96.9283 842.768 97.5675C843.195 98.2067 843.408 98.9938 843.408 99.929C843.408 100.864 843.189 101.663 842.751 102.326C842.313 102.977 841.745 103.474 841.046 103.817C840.36 104.161 839.638 104.332 838.88 104.332H834.352V101.971H838.099C838.56 101.971 838.987 101.799 839.377 101.456C839.768 101.113 839.963 100.604 839.963 99.929C839.963 99.2187 839.768 98.7216 839.377 98.4375C838.987 98.1534 838.578 98.0114 838.152 98.0114H835.79V108.736H832.559ZM840.78 102.646L843.869 108.736H840.318L837.388 102.646H840.78ZM837.655 116.548C835.69 116.548 833.849 116.181 832.133 115.447C830.416 114.714 828.907 113.696 827.605 112.393C826.303 111.091 825.285 109.582 824.551 107.866C823.817 106.149 823.45 104.309 823.45 102.344C823.45 100.379 823.817 98.5381 824.551 96.8217C825.285 95.1054 826.303 93.5961 827.605 92.294C828.907 90.992 830.416 89.974 832.133 89.2401C833.849 88.5062 835.69 88.1392 837.655 88.1392C839.62 88.1392 841.46 88.5062 843.177 89.2401C844.893 89.974 846.402 90.992 847.705 92.294C849.007 93.5961 850.025 95.1054 850.759 96.8217C851.492 98.5381 851.859 100.379 851.859 102.344C851.859 104.309 851.492 106.149 850.759 107.866C850.025 109.582 849.007 111.091 847.705 112.393C846.402 113.696 844.893 114.714 843.177 115.447C841.46 116.181 839.62 116.548 837.655 116.548ZM837.655 112.908C839.596 112.908 841.366 112.435 842.964 111.488C844.562 110.541 845.834 109.268 846.781 107.67C847.74 106.061 848.219 104.285 848.219 102.344C848.219 100.402 847.74 98.6328 846.781 97.0348C845.834 95.425 844.562 94.1465 842.964 93.1996C841.366 92.2526 839.596 91.7791 837.655 91.7791C835.702 91.7791 833.926 92.2526 832.328 93.1996C830.73 94.1465 829.452 95.425 828.493 97.0348C827.546 98.6328 827.072 100.402 827.072 102.344C827.072 104.285 827.546 106.055 828.493 107.653C829.452 109.251 830.73 110.529 832.328 111.488C833.926 112.435 835.702 112.908 837.655 112.908Z" fill="#028A0F"/>
</svg>
